<?xml version="1.0" encoding="UTF-8" standalone="no"?>
<!DOCTYPE svg PUBLIC "-//W3C//DTD SVG 1.1//EN" "http://www.w3.org/Graphics/SVG/1.1/DTD/svg11.dtd">
<svg xmlns:dc="http://purl.org/dc/elements/1.1/" xmlns:xl="http://www.w3.org/1999/xlink" version="1.1" xmlns="http://www.w3.org/2000/svg" viewBox="-58 -53 925 610" width="925" height="610">
  <defs>
    <marker orient="auto" overflow="visible" markerUnits="strokeWidth" id="FilledArrow_Marker" stroke-linejoin="miter" stroke-miterlimit="10" viewBox="-1 -4 10 8" markerWidth="10" markerHeight="8" color="black">
      <g>
        <path d="M 8 0 L 0 -3 L 0 3 Z" fill="currentColor" stroke="currentColor" stroke-width="1"/>
      </g>
    </marker>
    <marker orient="auto" overflow="visible" markerUnits="strokeWidth" id="FilledArrow_Marker_2" stroke-linejoin="miter" stroke-miterlimit="10" viewBox="-1 -4 10 8" markerWidth="10" markerHeight="8" color="#0096ff">
      <g>
        <path d="M 8 0 L 0 -3 L 0 3 Z" fill="currentColor" stroke="currentColor" stroke-width="1"/>
      </g>
    </marker>
  </defs>
  <g id="Canvas_1" stroke-opacity="1" stroke="none" fill="none" fill-opacity="1" stroke-dasharray="none">
    <title>Canvas 1</title>
    <rect fill="white" x="-58" y="-53" width="925" height="610"/>
    <g id="Canvas_1_Layer_1">
      <title>Layer 1</title>
      <g id="Graphic_164">
        <path d="M 751.5774 349.521 L 815.9824 349.521 C 817.087 349.521 817.9824 350.41643 817.9824 351.521 L 817.9824 444.358 C 817.9824 445.46257 817.087 446.358 815.9824 446.358 L 751.5774 446.358 C 750.4728 446.358 749.5774 445.46257 749.5774 444.358 L 749.5774 351.521 C 749.5774 350.41643 750.4728 349.521 751.5774 349.521 Z" fill="#ffffc0"/>
        <path d="M 751.5774 349.521 L 815.9824 349.521 C 817.087 349.521 817.9824 350.41643 817.9824 351.521 L 817.9824 444.358 C 817.9824 445.46257 817.087 446.358 815.9824 446.358 L 751.5774 446.358 C 750.4728 446.358 749.5774 445.46257 749.5774 444.358 L 749.5774 351.521 C 749.5774 350.41643 750.4728 349.521 751.5774 349.521 Z" stroke="black" stroke-linecap="round" stroke-linejoin="round" stroke-dasharray="4.0,4.0" stroke-width="1"/>
        <text transform="translate(754.5774 354.521)" fill="black">
          <tspan font-family="Helvetica Neue" font-size="12" fill="black" x="0" y="11">P3</tspan>
        </text>
      </g>
      <g id="Graphic_163">
        <path d="M 677.1374 349.521 L 741.5424 349.521 C 742.647 349.521 743.5424 350.41643 743.5424 351.521 L 743.5424 444.358 C 743.5424 445.46257 742.647 446.358 741.5424 446.358 L 677.1374 446.358 C 676.0328 446.358 675.1374 445.46257 675.1374 444.358 L 675.1374 351.521 C 675.1374 350.41643 676.0328 349.521 677.1374 349.521 Z" fill="#ffffc0"/>
        <path d="M 677.1374 349.521 L 741.5424 349.521 C 742.647 349.521 743.5424 350.41643 743.5424 351.521 L 743.5424 444.358 C 743.5424 445.46257 742.647 446.358 741.5424 446.358 L 677.1374 446.358 C 676.0328 446.358 675.1374 445.46257 675.1374 444.358 L 675.1374 351.521 C 675.1374 350.41643 676.0328 349.521 677.1374 349.521 Z" stroke="black" stroke-linecap="round" stroke-linejoin="round" stroke-dasharray="4.0,4.0" stroke-width="1"/>
        <text transform="translate(680.1374 354.521)" fill="black">
          <tspan font-family="Helvetica Neue" font-size="12" fill="black" x="0" y="11">P2</tspan>
        </text>
      </g>
      <g id="Graphic_162">
        <path d="M 602.1199 349.521 L 666.5249 349.521 C 667.6295 349.521 668.5249 350.41643 668.5249 351.521 L 668.5249 444.358 C 668.5249 445.46257 667.6295 446.358 666.5249 446.358 L 602.1199 446.358 C 601.01534 446.358 600.1199 445.46257 600.1199 444.358 L 600.1199 351.521 C 600.1199 350.41643 601.01534 349.521 602.1199 349.521 Z" fill="#ffffc0"/>
        <path d="M 602.1199 349.521 L 666.5249 349.521 C 667.6295 349.521 668.5249 350.41643 668.5249 351.521 L 668.5249 444.358 C 668.5249 445.46257 667.6295 446.358 666.5249 446.358 L 602.1199 446.358 C 601.01534 446.358 600.1199 445.46257 600.1199 444.358 L 600.1199 351.521 C 600.1199 350.41643 601.01534 349.521 602.1199 349.521 Z" stroke="black" stroke-linecap="round" stroke-linejoin="round" stroke-dasharray="4.0,4.0" stroke-width="1"/>
        <text transform="translate(605.1199 354.521)" fill="black">
          <tspan font-family="Helvetica Neue" font-size="12" fill="black" x="0" y="11">P1</tspan>
        </text>
      </g>
      <g id="Graphic_161">
        <path d="M 599.8999 151.521 L 816.7949 151.521 C 817.8995 151.521 818.7949 152.41643 818.7949 153.521 L 818.7949 301.521 C 818.7949 302.62557 817.8995 303.521 816.7949 303.521 L 599.8999 303.521 C 598.79534 303.521 597.8999 302.62557 597.8999 301.521 L 597.8999 153.521 C 597.8999 152.41643 598.79534 151.521 599.8999 151.521 Z" fill="#c0ffff"/>
        <path d="M 599.8999 151.521 L 816.7949 151.521 C 817.8995 151.521 818.7949 152.41643 818.7949 153.521 L 818.7949 301.521 C 818.7949 302.62557 817.8995 303.521 816.7949 303.521 L 599.8999 303.521 C 598.79534 303.521 597.8999 302.62557 597.8999 301.521 L 597.8999 153.521 C 597.8999 152.41643 598.79534 151.521 599.8999 151.521 Z" stroke="black" stroke-linecap="round" stroke-linejoin="round" stroke-dasharray="4.0,4.0" stroke-width="1"/>
        <text transform="translate(602.8999 156.521)" fill="black">
          <tspan font-family="Helvetica Neue" font-size="12" fill="black" x="0" y="11">PPU</tspan>
        </text>
      </g>
      <g id="Graphic_160">
        <path d="M 677.1374 59.521004 L 741.5424 59.521004 C 742.647 59.521004 743.5424 60.416434 743.5424 61.521004 L 743.5424 141.941 C 743.5424 143.04557 742.647 143.941 741.5424 143.941 L 677.1374 143.941 C 676.0328 143.941 675.1374 143.04557 675.1374 141.941 L 675.1374 61.521004 C 675.1374 60.416434 676.0328 59.521004 677.1374 59.521004 Z" fill="#ffffc0"/>
        <path d="M 677.1374 59.521004 L 741.5424 59.521004 C 742.647 59.521004 743.5424 60.416434 743.5424 61.521004 L 743.5424 141.941 C 743.5424 143.04557 742.647 143.941 741.5424 143.941 L 677.1374 143.941 C 676.0328 143.941 675.1374 143.04557 675.1374 141.941 L 675.1374 61.521004 C 675.1374 60.416434 676.0328 59.521004 677.1374 59.521004 Z" stroke="black" stroke-linecap="round" stroke-linejoin="round" stroke-dasharray="4.0,4.0" stroke-width="1"/>
        <text transform="translate(680.1374 64.521)" fill="black">
          <tspan font-family="Helvetica Neue" font-size="12" fill="black" x="0" y="11">P2</tspan>
        </text>
      </g>
      <g id="Graphic_159">
        <path d="M 752.3899 59.521004 L 816.7949 59.521004 C 817.8995 59.521004 818.7949 60.416434 818.7949 61.521004 L 818.7949 141.941 C 818.7949 143.04557 817.8995 143.941 816.7949 143.941 L 752.3899 143.941 C 751.2853 143.941 750.3899 143.04557 750.3899 141.941 L 750.3899 61.521004 C 750.3899 60.416434 751.2853 59.521004 752.3899 59.521004 Z" fill="#ffffc0"/>
        <path d="M 752.3899 59.521004 L 816.7949 59.521004 C 817.8995 59.521004 818.7949 60.416434 818.7949 61.521004 L 818.7949 141.941 C 818.7949 143.04557 817.8995 143.941 816.7949 143.941 L 752.3899 143.941 C 751.2853 143.941 750.3899 143.04557 750.3899 141.941 L 750.3899 61.521004 C 750.3899 60.416434 751.2853 59.521004 752.3899 59.521004 Z" stroke="black" stroke-linecap="round" stroke-linejoin="round" stroke-dasharray="4.0,4.0" stroke-width="1"/>
        <text transform="translate(755.3899 64.521)" fill="black">
          <tspan font-family="Helvetica Neue" font-size="12" fill="black" x="0" y="11">P3</tspan>
        </text>
      </g>
      <g id="Graphic_158">
        <path d="M 599.8999 59.521004 L 664.3049 59.521004 C 665.4095 59.521004 666.3049 60.416434 666.3049 61.521004 L 666.3049 141.941 C 666.3049 143.04557 665.4095 143.941 664.3049 143.941 L 599.8999 143.941 C 598.79534 143.941 597.8999 143.04557 597.8999 141.941 L 597.8999 61.521004 C 597.8999 60.416434 598.79534 59.521004 599.8999 59.521004 Z" fill="#ffffc0"/>
        <path d="M 599.8999 59.521004 L 664.3049 59.521004 C 665.4095 59.521004 666.3049 60.416434 666.3049 61.521004 L 666.3049 141.941 C 666.3049 143.04557 665.4095 143.941 664.3049 143.941 L 599.8999 143.941 C 598.79534 143.941 597.8999 143.04557 597.8999 141.941 L 597.8999 61.521004 C 597.8999 60.416434 598.79534 59.521004 599.8999 59.521004 Z" stroke="black" stroke-linecap="round" stroke-linejoin="round" stroke-dasharray="4.0,4.0" stroke-width="1"/>
        <text transform="translate(602.8999 64.521)" fill="black">
          <tspan font-family="Helvetica Neue" font-size="12" fill="black" x="0" y="11">P1</tspan>
        </text>
      </g>
      <g id="Graphic_157">
        <rect x="599.0099" y="311.101" width="220.47" height="33" fill="#ffffc0"/>
        <path d="M 599.0099 311.101 L 819.4799 311.101 L 819.4799 344.101 L 599.0099 344.101 Z" stroke="black" stroke-linecap="round" stroke-linejoin="round" stroke-dasharray="4.0,4.0" stroke-width="1"/>
        <text transform="translate(604.0099 316.101)" fill="black">
          <tspan font-family="Helvetica Neue" font-size="12" fill="black" x="0" y="11">P4</tspan>
        </text>
      </g>
      <g id="Graphic_156">
        <rect x="597.8999" y="18.941002" width="220.47" height="33" fill="#ffffc0"/>
        <path d="M 597.8999 18.941002 L 818.3699 18.941002 L 818.3699 51.941 L 597.8999 51.941 Z" stroke="black" stroke-linecap="round" stroke-linejoin="round" stroke-dasharray="4.0,4.0" stroke-width="1"/>
        <text transform="translate(602.8999 23.941002)" fill="black">
          <tspan font-family="Helvetica Neue" font-size="12" fill="black" x="0" y="11">P4</tspan>
        </text>
      </g>
      <g id="Graphic_155">
        <circle cx="707.5449" cy="40.301003" r="7.50001198426422" fill="#80ff80"/>
        <circle cx="707.5449" cy="40.301003" r="7.50001198426422" stroke="black" stroke-linecap="round" stroke-linejoin="round" stroke-width="1"/>
      </g>
      <g id="Graphic_154">
        <text transform="translate(720.0449 30.521004)" fill="black">
          <tspan font-family="Helvetica Neue" font-size="10" fill="black" x="0" y="10">W0</tspan>
        </text>
      </g>
      <g id="Graphic_153">
        <rect x="608.5449" y="80.301" width="51.5" height="20.947998" fill="white"/>
        <rect x="608.5449" y="80.301" width="51.5" height="20.947998" stroke="black" stroke-linecap="round" stroke-linejoin="round" stroke-width="1"/>
        <text transform="translate(613.5449 84.635)" fill="black">
          <tspan font-family="Helvetica Neue" font-size="10" fill="black" x=".925" y="10">compute</tspan>
        </text>
      </g>
      <g id="Line_152">
        <path d="M 701.7823 44.268316 L 656.99424 75.50974 M 701.9523 44.207867 L 657.8489 74.969195" marker-end="url(#FilledArrow_Marker)" stroke="black" stroke-linecap="round" stroke-linejoin="round" stroke-width="1"/>
      </g>
      <g id="Graphic_151">
        <circle cx="616.0449" cy="132.801" r="7.50001198426426" fill="#80ff80"/>
        <circle cx="616.0449" cy="132.801" r="7.50001198426426" stroke="black" stroke-linecap="round" stroke-linejoin="round" stroke-width="1"/>
      </g>
      <g id="Line_150">
        <path d="M 630.0921 100.42079 L 622.9388 117.56559 M 630.29766 100.32942 L 623.4135 116.66125" marker-end="url(#FilledArrow_Marker)" stroke="black" stroke-linecap="round" stroke-linejoin="round" stroke-width="1"/>
      </g>
      <g id="Graphic_149">
        <rect x="678.5099" y="217.801" width="58.07" height="20.947998" fill="#ff8080"/>
        <rect x="678.5099" y="217.801" width="58.07" height="20.947998" stroke="black" stroke-linecap="round" stroke-linejoin="round" stroke-width="1"/>
        <text transform="translate(683.5099 222.135)" fill="black">
          <tspan font-family="Helvetica Neue" font-size="10" fill="black" x="1.5349998" y="10">aggregate</tspan>
        </text>
      </g>
      <g id="Graphic_148">
        <circle cx="707.3399" cy="332.244" r="7.50001198426422" fill="#80ff80"/>
        <circle cx="707.3399" cy="332.244" r="7.50001198426422" stroke="black" stroke-linecap="round" stroke-linejoin="round" stroke-width="1"/>
      </g>
      <g id="Graphic_147">
        <text transform="translate(720.6799 326.104)" fill="black">
          <tspan font-family="Helvetica Neue" font-size="10" fill="black" x="0" y="10">W1</tspan>
        </text>
      </g>
      <g id="Line_146">
        <path d="M 707.52565 286.49444 L 707.2064 315.85352 M 707.7552 286.37057 L 707.3807 314.83967" marker-end="url(#FilledArrow_Marker)" stroke="black" stroke-linecap="round" stroke-linejoin="round" stroke-width="1"/>
      </g>
      <g id="Graphic_145">
        <text transform="translate(605.7699 112.941)" fill="black">
          <tspan font-family="Helvetica Neue" font-size="10" fill="black" x=".27999985" y="10">Wa</tspan>
        </text>
      </g>
      <g id="Graphic_144">
        <text transform="translate(677.6999 112.941)" fill="black">
          <tspan font-family="Helvetica Neue" font-size="10" fill="black" x="0" y="10">Wb</tspan>
        </text>
      </g>
      <g id="Graphic_143">
        <text transform="translate(751.6499 112.941)" fill="black">
          <tspan font-family="Helvetica Neue" font-size="10" fill="black" x="0" y="10">Wb</tspan>
        </text>
      </g>
      <g id="Graphic_142">
        <circle cx="707.5449" cy="279.9265" r="7.50001198426422" fill="#ff8080"/>
        <circle cx="707.5449" cy="279.9265" r="7.50001198426422" stroke="black" stroke-linecap="round" stroke-linejoin="round" stroke-width="1"/>
      </g>
      <g id="Graphic_141">
        <text transform="translate(722.7749 273.7865)" fill="black">
          <tspan font-family="Helvetica Neue" font-size="10" fill="black" x="0" y="10">W1</tspan>
        </text>
      </g>
      <g id="Line_140">
        <line x1="707.5449" y1="238.749" x2="707.5449" y2="262.5265" marker-end="url(#FilledArrow_Marker)" stroke="black" stroke-linecap="round" stroke-linejoin="round" stroke-width="1"/>
      </g>
      <g id="Graphic_139">
        <circle cx="652.5449" cy="132.801" r="7.50001198426426" fill="#80ff80"/>
        <circle cx="652.5449" cy="132.801" r="7.50001198426426" stroke="black" stroke-linecap="round" stroke-linejoin="round" stroke-width="1"/>
      </g>
      <g id="Line_138">
        <path d="M 638.74766 101.01651 L 645.8202 118.21048 M 638.88565 100.88616 L 645.648 117.16943" marker-end="url(#FilledArrow_Marker)" stroke="black" stroke-linecap="round" stroke-linejoin="round" stroke-width="1"/>
      </g>
      <g id="Graphic_137">
        <text transform="translate(650.2824 112.941)" fill="black">
          <tspan font-family="Helvetica Neue" font-size="10" fill="black" x="1.9449998" y="10">na</tspan>
        </text>
      </g>
      <g id="Graphic_136">
        <rect x="756.8399" y="80.301" width="51.5" height="20.947998" fill="white"/>
        <rect x="756.8399" y="80.301" width="51.5" height="20.947998" stroke="black" stroke-linecap="round" stroke-linejoin="round" stroke-width="1"/>
        <text transform="translate(761.8399 84.635)" fill="black">
          <tspan font-family="Helvetica Neue" font-size="10" fill="black" x=".925" y="10">compute</tspan>
        </text>
      </g>
      <g id="Graphic_135">
        <circle cx="764.3399" cy="132.801" r="7.5000119842642" fill="#80ff80"/>
        <circle cx="764.3399" cy="132.801" r="7.5000119842642" stroke="black" stroke-linecap="round" stroke-linejoin="round" stroke-width="1"/>
      </g>
      <g id="Line_134">
        <path d="M 778.1524 100.98529 L 771.244 117.42197 M 778.3062 100.87241 L 771.8384 116.41423" marker-end="url(#FilledArrow_Marker)" stroke="black" stroke-linecap="round" stroke-linejoin="round" stroke-width="1"/>
      </g>
      <g id="Graphic_133">
        <circle cx="800.8399" cy="132.801" r="7.50001198426421" fill="#80ff80"/>
        <circle cx="800.8399" cy="132.801" r="7.50001198426421" stroke="black" stroke-linecap="round" stroke-linejoin="round" stroke-width="1"/>
      </g>
      <g id="Line_132">
        <path d="M 786.8847 100.6198 L 793.62355 117.3392 M 787.0467 100.47988 L 793.6841 116.9562" marker-end="url(#FilledArrow_Marker)" stroke="black" stroke-linecap="round" stroke-linejoin="round" stroke-width="1"/>
      </g>
      <g id="Graphic_131">
        <rect x="681.7949" y="80.301" width="51.5" height="20.947998" fill="white"/>
        <rect x="681.7949" y="80.301" width="51.5" height="20.947998" stroke="black" stroke-linecap="round" stroke-linejoin="round" stroke-width="1"/>
        <text transform="translate(686.7949 84.635)" fill="black">
          <tspan font-family="Helvetica Neue" font-size="10" fill="black" x=".925" y="10">compute</tspan>
        </text>
      </g>
      <g id="Graphic_130">
        <circle cx="689.2949" cy="132.801" r="7.50001198426423" fill="#80ff80"/>
        <circle cx="689.2949" cy="132.801" r="7.50001198426423" stroke="black" stroke-linecap="round" stroke-linejoin="round" stroke-width="1"/>
      </g>
      <g id="Line_129">
        <path d="M 703.2007 100.77416 L 696.1162 117.24751 M 703.4317 100.69473 L 696.4299 116.88802" marker-end="url(#FilledArrow_Marker)" stroke="black" stroke-linecap="round" stroke-linejoin="round" stroke-width="1"/>
      </g>
      <g id="Graphic_128">
        <circle cx="725.7949" cy="132.801" r="7.50001198426421" fill="#80ff80"/>
        <circle cx="725.7949" cy="132.801" r="7.50001198426421" stroke="black" stroke-linecap="round" stroke-linejoin="round" stroke-width="1"/>
      </g>
      <g id="Line_127">
        <path d="M 711.714 100.42266 L 719.2544 116.8516 M 711.9517 100.24596 L 719.27535 116.43582" marker-end="url(#FilledArrow_Marker)" stroke="black" stroke-linecap="round" stroke-linejoin="round" stroke-width="1"/>
      </g>
      <g id="Graphic_126">
        <text transform="translate(803.0899 112.941)" fill="black">
          <tspan font-family="Helvetica Neue" font-size="10" fill="black" x="14566126e-20" y="10">nc</tspan>
        </text>
      </g>
      <g id="Graphic_125">
        <text transform="translate(723.4949 112.941)" fill="black">
          <tspan font-family="Helvetica Neue" font-size="10" fill="black" x="1.9449998" y="10">na</tspan>
        </text>
      </g>
      <g id="Graphic_124">
        <circle cx="616.0449" cy="176.6235" r="7.50001198426425" fill="#ff8080"/>
        <circle cx="616.0449" cy="176.6235" r="7.50001198426425" stroke="black" stroke-linecap="round" stroke-linejoin="round" stroke-width="1"/>
      </g>
      <g id="Graphic_123">
        <circle cx="652.5449" cy="176.6235" r="7.50001198426425" fill="#ff8080"/>
        <circle cx="652.5449" cy="176.6235" r="7.50001198426425" stroke="black" stroke-linecap="round" stroke-linejoin="round" stroke-width="1"/>
      </g>
      <g id="Graphic_122">
        <circle cx="764.3399" cy="176.6235" r="7.50001198426419" fill="#ff8080"/>
        <circle cx="764.3399" cy="176.6235" r="7.50001198426419" stroke="black" stroke-linecap="round" stroke-linejoin="round" stroke-width="1"/>
      </g>
      <g id="Graphic_121">
        <circle cx="800.8399" cy="176.6235" r="7.50001198426421" fill="#ff8080"/>
        <circle cx="800.8399" cy="176.6235" r="7.50001198426421" stroke="black" stroke-linecap="round" stroke-linejoin="round" stroke-width="1"/>
      </g>
      <g id="Graphic_120">
        <circle cx="689.2949" cy="176.6235" r="7.50001198426422" fill="#ff8080"/>
        <circle cx="689.2949" cy="176.6235" r="7.50001198426422" stroke="black" stroke-linecap="round" stroke-linejoin="round" stroke-width="1"/>
      </g>
      <g id="Graphic_119">
        <circle cx="725.7949" cy="176.6235" r="7.50001198426421" fill="#ff8080"/>
        <circle cx="725.7949" cy="176.6235" r="7.50001198426421" stroke="black" stroke-linecap="round" stroke-linejoin="round" stroke-width="1"/>
      </g>
      <g id="Line_118">
        <path d="M 616.03555 139.8764 L 616.47894 160.0024 M 616.2608 139.74919 L 616.62915 159.48933" marker-end="url(#FilledArrow_Marker_2)" stroke="#0096ff" stroke-linecap="round" stroke-linejoin="round" stroke-dasharray="4.0,4.0" stroke-width="1"/>
      </g>
      <g id="Line_117">
        <path d="M 652.55976 139.6803 L 652.0901 159.30666 M 652.7268 139.55631 L 652.23135 158.78564" marker-end="url(#FilledArrow_Marker)" stroke="black" stroke-linecap="round" stroke-linejoin="round" stroke-width="1"/>
      </g>
      <g id="Line_116">
        <path d="M 689.3086 139.48408 L 688.972 159.61099 M 689.5424 139.3609 L 689.20854 159.08264" marker-end="url(#FilledArrow_Marker_2)" stroke="#0096ff" stroke-linecap="round" stroke-linejoin="round" stroke-dasharray="4.0,4.0" stroke-width="1"/>
      </g>
      <g id="Line_115">
        <path d="M 725.7975 140.03781 L 725.604 159.9153 M 725.9731 139.9133 L 725.81076 159.37706" marker-end="url(#FilledArrow_Marker)" stroke="black" stroke-linecap="round" stroke-linejoin="round" stroke-width="1"/>
      </g>
      <g id="Line_114">
        <path d="M 764.3413 139.84163 L 764.2809 159.21958 M 764.5838 139.717 L 764.458 158.67187" marker-end="url(#FilledArrow_Marker_2)" stroke="#0096ff" stroke-linecap="round" stroke-linejoin="round" stroke-dasharray="4.0,4.0" stroke-width="1"/>
      </g>
      <g id="Line_113">
        <path d="M 800.8374 139.64547 L 800.913 159.52385 M 801.0217 139.52025 L 801.0602 158.96703" marker-end="url(#FilledArrow_Marker)" stroke="black" stroke-linecap="round" stroke-linejoin="round" stroke-width="1"/>
      </g>
      <g id="Line_112">
        <path d="M 621.8364 179.89212 L 680.9533 213.31522 M 621.9619 179.76617 L 680.7547 212.86737" marker-end="url(#FilledArrow_Marker)" stroke="black" stroke-linecap="round" stroke-linejoin="round" stroke-width="1"/>
      </g>
      <g id="Line_111">
        <path d="M 657.79545 181.55335 L 689.832 211.79172 M 657.96706 181.37896 L 689.69524 211.2893" marker-end="url(#FilledArrow_Marker)" stroke="black" stroke-linecap="round" stroke-linejoin="round" stroke-width="1"/>
      </g>
      <g id="Line_110">
        <path d="M 691.6204 183.23421 L 701.1662 208.65044 M 691.7545 183.1058 L 701.1935 208.07256" marker-end="url(#FilledArrow_Marker)" stroke="black" stroke-linecap="round" stroke-linejoin="round" stroke-width="1"/>
      </g>
      <g id="Line_109">
        <path d="M 723.5348 183.04922 L 713.9703 208.95506 M 723.7316 182.95073 L 714.2954 208.40592" marker-end="url(#FilledArrow_Marker)" stroke="black" stroke-linecap="round" stroke-linejoin="round" stroke-width="1"/>
      </g>
      <g id="Line_108">
        <path d="M 759.4461 181.07236 L 725.7518 211.80663 M 759.5834 180.96091 L 726.2378 211.371" marker-end="url(#FilledArrow_Marker)" stroke="black" stroke-linecap="round" stroke-linejoin="round" stroke-width="1"/>
      </g>
      <g id="Line_107">
        <path d="M 794.5685 180.09774 L 734.5458 212.87935 M 794.7344 180.04747 L 735.1499 212.62004" marker-end="url(#FilledArrow_Marker)" stroke="black" stroke-linecap="round" stroke-linejoin="round" stroke-width="1"/>
      </g>
      <g id="Line_106">
        <path d="M 707.5455 47.272306 L 707.52025 70.83125 M 707.6974 47.147334 L 707.7306 70.212584" marker-end="url(#FilledArrow_Marker)" stroke="black" stroke-linecap="round" stroke-linejoin="round" stroke-width="1"/>
      </g>
      <g id="Line_105">
        <path d="M 713.1689 44.081474 L 759.32375 75.2893 M 713.34644 43.878796 L 759.0648 74.83489" marker-end="url(#FilledArrow_Marker)" stroke="black" stroke-linecap="round" stroke-linejoin="round" stroke-width="1"/>
      </g>
      <g id="Graphic_104">
        <rect x="608.5449" y="381.441" width="51.5" height="20.947998" fill="white"/>
        <rect x="608.5449" y="381.441" width="51.5" height="20.947998" stroke="black" stroke-linecap="round" stroke-linejoin="round" stroke-width="1"/>
        <text transform="translate(613.5449 385.775)" fill="black">
          <tspan font-family="Helvetica Neue" font-size="10" fill="black" x=".925" y="10">compute</tspan>
        </text>
      </g>
      <g id="Line_103">
        <path d="M 701.8152 336.75646 L 654.7444 375.33033 M 702.0051 336.71065 L 655.2743 374.87847" marker-end="url(#FilledArrow_Marker)" stroke="black" stroke-linecap="round" stroke-linejoin="round" stroke-width="1"/>
      </g>
      <g id="Graphic_102">
        <circle cx="615.0449" cy="433.941" r="7.50001198426423" fill="#80ff80"/>
        <circle cx="615.0449" cy="433.941" r="7.50001198426423" stroke="black" stroke-linecap="round" stroke-linejoin="round" stroke-width="1"/>
      </g>
      <g id="Line_101">
        <path d="M 629.8202 401.70154 L 621.6849 419.02027 M 630.0457 401.62374 L 622.1064 418.44007" marker-end="url(#FilledArrow_Marker)" stroke="black" stroke-linecap="round" stroke-linejoin="round" stroke-width="1"/>
      </g>
      <g id="Graphic_100">
        <text transform="translate(604.7699 414.081)" fill="black">
          <tspan font-family="Helvetica Neue" font-size="10" fill="black" x=".27999985" y="10">Wa</tspan>
        </text>
      </g>
      <g id="Graphic_99">
        <text transform="translate(676.6999 414.081)" fill="black">
          <tspan font-family="Helvetica Neue" font-size="10" fill="black" x="0" y="10">Wb</tspan>
        </text>
      </g>
      <g id="Graphic_98">
        <text transform="translate(750.6499 414.081)" fill="black">
          <tspan font-family="Helvetica Neue" font-size="10" fill="black" x="0" y="10">Wb</tspan>
        </text>
      </g>
      <g id="Graphic_97">
        <circle cx="651.5449" cy="433.941" r="7.50001198426421" fill="#80ff80"/>
        <circle cx="651.5449" cy="433.941" r="7.50001198426421" stroke="black" stroke-linecap="round" stroke-linejoin="round" stroke-width="1"/>
      </g>
      <g id="Line_96">
        <path d="M 638.2022 401.47947 L 645.43536 418.26783 M 638.39154 401.32675 L 645.3895 417.58235" marker-end="url(#FilledArrow_Marker)" stroke="black" stroke-linecap="round" stroke-linejoin="round" stroke-width="1"/>
      </g>
      <g id="Graphic_95">
        <text transform="translate(649.2824 414.081)" fill="black">
          <tspan font-family="Helvetica Neue" font-size="10" fill="black" x="1.9449998" y="10">na</tspan>
        </text>
      </g>
      <g id="Graphic_94">
        <rect x="756.8399" y="381.441" width="51.5" height="20.947998" fill="white"/>
        <rect x="756.8399" y="381.441" width="51.5" height="20.947998" stroke="black" stroke-linecap="round" stroke-linejoin="round" stroke-width="1"/>
        <text transform="translate(761.8399 385.775)" fill="black">
          <tspan font-family="Helvetica Neue" font-size="10" fill="black" x=".925" y="10">compute</tspan>
        </text>
      </g>
      <g id="Graphic_93">
        <circle cx="763.3399" cy="433.941" r="7.50001198426422" fill="#80ff80"/>
        <circle cx="763.3399" cy="433.941" r="7.50001198426422" stroke="black" stroke-linecap="round" stroke-linejoin="round" stroke-width="1"/>
      </g>
      <g id="Line_92">
        <path d="M 777.9092 402.14006 L 770.1089 418.75117 M 778.1132 402.05216 L 770.5706 418.10174" marker-end="url(#FilledArrow_Marker)" stroke="black" stroke-linecap="round" stroke-linejoin="round" stroke-width="1"/>
      </g>
      <g id="Graphic_91">
        <circle cx="799.8399" cy="433.941" r="7.50001198426416" fill="#80ff80"/>
        <circle cx="799.8399" cy="433.941" r="7.50001198426416" stroke="black" stroke-linecap="round" stroke-linejoin="round" stroke-width="1"/>
      </g>
      <g id="Line_90">
        <path d="M 786.6294 401.77425 L 793.5224 418.0909 M 786.8427 401.61193 L 793.4258 417.3696" marker-end="url(#FilledArrow_Marker)" stroke="black" stroke-linecap="round" stroke-linejoin="round" stroke-width="1"/>
      </g>
      <g id="Graphic_89">
        <rect x="681.7949" y="381.441" width="51.5" height="20.947998" fill="white"/>
        <rect x="681.7949" y="381.441" width="51.5" height="20.947998" stroke="black" stroke-linecap="round" stroke-linejoin="round" stroke-width="1"/>
        <text transform="translate(686.7949 385.775)" fill="black">
          <tspan font-family="Helvetica Neue" font-size="10" fill="black" x=".925" y="10">compute</tspan>
        </text>
      </g>
      <g id="Graphic_88">
        <circle cx="688.2949" cy="433.941" r="7.50001198426424" fill="#80ff80"/>
        <circle cx="688.2949" cy="433.941" r="7.50001198426424" stroke="black" stroke-linecap="round" stroke-linejoin="round" stroke-width="1"/>
      </g>
      <g id="Line_87">
        <path d="M 702.9523 401.92656 L 695.7041 418.2743 M 703.1197 401.82035 L 696.1632 417.57313" marker-end="url(#FilledArrow_Marker)" stroke="black" stroke-linecap="round" stroke-linejoin="round" stroke-width="1"/>
      </g>
      <g id="Graphic_86">
        <circle cx="724.7949" cy="433.941" r="7.50001198426427" fill="#80ff80"/>
        <circle cx="724.7949" cy="433.941" r="7.50001198426427" stroke="black" stroke-linecap="round" stroke-linejoin="round" stroke-width="1"/>
      </g>
      <g id="Line_85">
        <path d="M 711.52 401.5513 L 718.1214 418.61655 M 711.6963 401.4065 L 718.0178 417.85105" marker-end="url(#FilledArrow_Marker)" stroke="black" stroke-linecap="round" stroke-linejoin="round" stroke-width="1"/>
      </g>
      <g id="Graphic_84">
        <text transform="translate(802.0899 414.081)" fill="black">
          <tspan font-family="Helvetica Neue" font-size="10" fill="black" x="14566126e-20" y="10">nc</tspan>
        </text>
      </g>
      <g id="Graphic_83">
        <text transform="translate(722.4949 414.081)" fill="black">
          <tspan font-family="Helvetica Neue" font-size="10" fill="black" x="1.9449998" y="10">na</tspan>
        </text>
      </g>
      <g id="Line_82">
        <path d="M 707.3614 339.0073 L 707.55565 372.2738 M 707.4918 338.88226 L 707.7384 371.442" marker-end="url(#FilledArrow_Marker)" stroke="black" stroke-linecap="round" stroke-linejoin="round" stroke-width="1"/>
      </g>
      <g id="Line_81">
        <path d="M 712.4873 336.32334 L 762.3896 376.0571 M 712.6573 336.14186 L 761.9768 375.45926" marker-end="url(#FilledArrow_Marker)" stroke="black" stroke-linecap="round" stroke-linejoin="round" stroke-width="1"/>
      </g>
      <g id="Line_80">
        <path d="M 598.8529 -27.317008 L 648.461 -27.708576 M 598.9778 -27.456024 L 647.86186 -27.835762" marker-end="url(#FilledArrow_Marker_2)" stroke="#0096ff" stroke-linecap="round" stroke-linejoin="round" stroke-dasharray="4.0,4.0" stroke-width="1"/>
      </g>
      <g id="Line_79">
        <path d="M 598.1567 1.3910231 L 648.5991 1.3012434 M 598.2816 1.1851972 L 647.9909 1.0716427" marker-end="url(#FilledArrow_Marker)" stroke="black" stroke-linecap="round" stroke-linejoin="round" stroke-width="1"/>
      </g>
      <g id="Graphic_78">
        <text transform="translate(601.4889 -47)" fill="black">
          <tspan font-family="Helvetica Neue" font-size="12" fill="black" x="24513724e-20" y="11">ciphertext</tspan>
        </text>
      </g>
      <g id="Graphic_77">
        <text transform="translate(604.2319 -15.61)" fill="black">
          <tspan font-family="Helvetica Neue" font-size="12" fill="black" x="0" y="11">plaintext</tspan>
        </text>
      </g>
      <g id="Graphic_76">
        <path d="M 46.448 376.88022 L 33.948 389.38022 L 46.448 401.8802 L 58.948 389.38022 Z" stroke="black" stroke-linecap="round" stroke-linejoin="round" stroke-width="1"/>
      </g>
      <g id="Graphic_75">
        <path d="M 90.4 -32.918187 L 102.15 -52 L 113.9 -32.918187 Z" stroke="black" stroke-linecap="round" stroke-linejoin="round" stroke-width="1"/>
      </g>
      <g id="Graphic_74">
        <path d="M 48 40.43 L 60 20.430002 L 72 40.43 Z" stroke="black" stroke-linecap="round" stroke-linejoin="round" stroke-width="1"/>
      </g>
      <g id="Graphic_73">
        <path d="M 133.25 41.511815 L 145 22.430002 L 156.75 41.511815 Z" stroke="black" stroke-linecap="round" stroke-linejoin="round" stroke-width="1"/>
      </g>
      <g id="Graphic_72">
        <circle cx="-3" cy="-42.459094" r="8.00001278321517" stroke="black" stroke-linecap="round" stroke-linejoin="round" stroke-width="1"/>
      </g>
      <g id="Graphic_71">
        <circle cx="-49" cy="-5.5409063" r="8.00001278321517" stroke="black" stroke-linecap="round" stroke-linejoin="round" stroke-width="1"/>
      </g>
      <g id="Line_70">
        <line x1="142.16127" y1="27.04006" x2="107.64278" y2="-32.918187" stroke="black" stroke-linecap="round" stroke-linejoin="round" stroke-dasharray="4.0,4.0" stroke-width="1"/>
      </g>
      <g id="Line_69">
        <line x1="96.63272" y1="-32.918187" x2="62.94469" y2="25.337815" stroke="black" stroke-linecap="round" stroke-linejoin="round" stroke-dasharray="4.0,4.0" stroke-width="1"/>
      </g>
      <g id="Line_68">
        <line x1="139.18986" y1="31.86558" x2="66.06598" y2="30.539968" stroke="black" stroke-linecap="round" stroke-linejoin="round" stroke-dasharray="4.0,4.0" stroke-width="1"/>
      </g>
      <g id="Line_67">
        <line x1="5.000004" y1="-42.459094" x2="96.275" y2="-42.459094" stroke="black" stroke-linecap="round" stroke-linejoin="round" stroke-dasharray="4.0,4.0" stroke-width="1"/>
      </g>
      <g id="Line_66">
        <line x1="4.149027" y1="-38.86381" x2="140.51415" y2="29.71495" stroke="black" stroke-linecap="round" stroke-linejoin="round" stroke-dasharray="4.0,4.0" stroke-width="1"/>
      </g>
      <g id="Line_65">
        <line x1="2.2315758" y1="-36.40632" x2="56.45847" y2="26.332556" stroke="black" stroke-linecap="round" stroke-linejoin="round" stroke-dasharray="4.0,4.0" stroke-width="1"/>
      </g>
      <g id="Graphic_64">
        <circle cx="-3" cy="28.430002" r="8.00001278321517" stroke="black" stroke-linecap="round" stroke-linejoin="round" stroke-width="1"/>
      </g>
      <g id="Graphic_63">
        <path d="M 26.959094 112 L 38.709094 92.91819 L 50.459094 112 Z" stroke="black" stroke-linecap="round" stroke-linejoin="round" stroke-width="1"/>
      </g>
      <g id="Graphic_62">
        <path d="M -15 186.43 L -3 166.43 L 9 186.43 Z" stroke="black" stroke-linecap="round" stroke-linejoin="round" stroke-width="1"/>
      </g>
      <g id="Graphic_61">
        <path d="M 72.95909 186.43 L 84.70909 167.34819 L 96.45909 186.43 Z" stroke="black" stroke-linecap="round" stroke-linejoin="round" stroke-width="1"/>
      </g>
      <g id="Graphic_60">
        <circle cx="38.709094" cy="104.7182" r="8.00001278321518" stroke="black" stroke-linecap="round" stroke-linejoin="round" stroke-width="1"/>
      </g>
      <g id="Graphic_59">
        <circle cx="-3" cy="179.3182" r="8.00001278321519" stroke="black" stroke-linecap="round" stroke-linejoin="round" stroke-width="1"/>
      </g>
      <g id="Line_58">
        <line x1="78.85297" y1="176.85844" x2="3.0189028" y2="176.4615" stroke="black" stroke-linecap="round" stroke-linejoin="round" stroke-dasharray="4.0,4.0" stroke-width="1"/>
      </g>
      <g id="Line_57">
        <line x1="43.00987" y1="111.46583" x2="81.72095" y2="172.2009" stroke="black" stroke-linecap="round" stroke-linejoin="round" stroke-dasharray="4.0,4.0" stroke-width="1"/>
      </g>
      <g id="Line_56">
        <line x1="34.685976" y1="111.63527" x2="-.04666212" y2="171.35223" stroke="black" stroke-linecap="round" stroke-linejoin="round" stroke-dasharray="4.0,4.0" stroke-width="1"/>
      </g>
      <g id="Graphic_55">
        <circle cx="84.70909" cy="180.1182" r="8.00001278321518" stroke="black" stroke-linecap="round" stroke-linejoin="round" stroke-width="1"/>
      </g>
      <g id="Graphic_54">
        <circle cx="46.698" cy="251.80017" r="8.00001278321517" stroke="black" stroke-linecap="round" stroke-linejoin="round" stroke-width="1"/>
      </g>
      <g id="Graphic_53">
        <path d="M 47.448 311.01835 L 34.948 323.51835 L 47.448 336.01835 L 59.948 323.51835 Z" stroke="black" stroke-linecap="round" stroke-linejoin="round" stroke-width="1"/>
      </g>
      <g id="Graphic_52">
        <circle cx="334" cy="-44" r="8.00001278321515" fill="red"/>
        <circle cx="334" cy="-44" r="8.00001278321515" stroke="black" stroke-linecap="round" stroke-linejoin="round" stroke-width="1"/>
      </g>
      <g id="Graphic_51">
        <circle cx="293" cy="-7.081813" r="8.00001278321515" fill="yellow"/>
        <circle cx="293" cy="-7.081813" r="8.00001278321515" stroke="black" stroke-linecap="round" stroke-linejoin="round" stroke-width="1"/>
      </g>
      <g id="Graphic_50">
        <circle cx="334" cy="30.430002" r="8.00001278321515" fill="#40ffff"/>
        <circle cx="334" cy="30.430002" r="8.00001278321515" stroke="black" stroke-linecap="round" stroke-linejoin="round" stroke-width="1"/>
      </g>
      <g id="Graphic_49">
        <path d="M 363.5 2.4590937 L 375.25 -16.622719 L 387 2.4590937 Z" fill="fuchsia"/>
        <path d="M 363.5 2.4590937 L 375.25 -16.622719 L 387 2.4590937 Z" stroke="black" stroke-linecap="round" stroke-linejoin="round" stroke-width="1"/>
      </g>
      <g id="Line_48">
        <line x1="328.0548" y1="-38.6467" x2="298.94518" y2="-12.435113" stroke="black" stroke-linecap="round" stroke-linejoin="round" stroke-dasharray="4.0,4.0" stroke-width="1"/>
      </g>
      <g id="Line_47">
        <line x1="334" y1="-35.999996" x2="334" y2="22.429998" stroke="black" stroke-linecap="round" stroke-linejoin="round" stroke-dasharray="4.0,4.0" stroke-width="1"/>
      </g>
      <g id="Line_46">
        <line x1="301" y1="-7.081813" x2="359.475" y2="-7.081813" marker-end="url(#FilledArrow_Marker)" stroke="black" stroke-linecap="round" stroke-linejoin="round" stroke-dasharray="4.0,4.0" stroke-width="1"/>
      </g>
      <g id="Line_45">
        <line x1="339.96135" y1="-38.664676" x2="364.0854" y2="-17.073974" marker-end="url(#FilledArrow_Marker)" stroke="black" stroke-linecap="round" stroke-linejoin="round" stroke-dasharray="4.0,4.0" stroke-width="1"/>
      </g>
      <g id="Line_44">
        <line x1="298.90246" y1="-1.6815204" x2="328.09754" y2="25.02971" stroke="black" stroke-linecap="round" stroke-linejoin="round" stroke-dasharray="4.0,4.0" stroke-width="1"/>
      </g>
      <g id="Graphic_43">
        <circle cx="334" cy="110.15199" r="8.00001278321515" fill="red"/>
        <circle cx="334" cy="110.15199" r="8.00001278321515" stroke="black" stroke-linecap="round" stroke-linejoin="round" stroke-width="1"/>
      </g>
      <g id="Graphic_42">
        <circle cx="296" cy="147.07017" r="8.00001278321515" fill="yellow"/>
        <circle cx="296" cy="147.07017" r="8.00001278321515" stroke="black" stroke-linecap="round" stroke-linejoin="round" stroke-width="1"/>
      </g>
      <g id="Graphic_41">
        <circle cx="334" cy="184.582" r="8.00001278321515" fill="#40ffff"/>
        <circle cx="334" cy="184.582" r="8.00001278321515" stroke="black" stroke-linecap="round" stroke-linejoin="round" stroke-width="1"/>
      </g>
      <g id="Graphic_40">
        <path d="M 360 156.61108 L 371.75 137.52927 L 383.5 156.61108 Z" fill="fuchsia"/>
        <path d="M 360 156.61108 L 371.75 137.52927 L 383.5 156.61108 Z" stroke="black" stroke-linecap="round" stroke-linejoin="round" stroke-width="1"/>
      </g>
      <g id="Line_39">
        <line x1="328.26205" y1="115.72658" x2="301.73795" y2="141.49558" stroke="black" stroke-linecap="round" stroke-linejoin="round" stroke-dasharray="4.0,4.0" stroke-width="1"/>
      </g>
      <g id="Line_38">
        <line x1="334" y1="118.15199" x2="334" y2="176.58199" stroke="black" stroke-linecap="round" stroke-linejoin="round" stroke-dasharray="4.0,4.0" stroke-width="1"/>
      </g>
      <g id="Line_37">
        <line x1="304" y1="147.07017" x2="355.975" y2="147.07017" marker-end="url(#FilledArrow_Marker)" stroke="black" stroke-linecap="round" stroke-linejoin="round" stroke-dasharray="4.0,4.0" stroke-width="1"/>
      </g>
      <g id="Line_36">
        <line x1="339.7195" y1="115.74548" x2="361.00527" y2="136.5622" marker-end="url(#FilledArrow_Marker)" stroke="black" stroke-linecap="round" stroke-linejoin="round" stroke-dasharray="4.0,4.0" stroke-width="1"/>
      </g>
      <g id="Line_35">
        <line x1="301.6933" y1="152.69034" x2="328.3067" y2="178.96183" stroke="black" stroke-linecap="round" stroke-linejoin="round" stroke-dasharray="4.0,4.0" stroke-width="1"/>
      </g>
      <g id="Graphic_34">
        <circle cx="47.448" cy="323.51835" r="8.00001278321514" stroke="black" stroke-linecap="round" stroke-linejoin="round" stroke-width="1"/>
      </g>
      <g id="Graphic_33">
        <circle cx="331" cy="261.90596" r="8.00001278321512" fill="red"/>
        <circle cx="331" cy="261.90596" r="8.00001278321512" stroke="black" stroke-linecap="round" stroke-linejoin="round" stroke-width="1"/>
      </g>
      <g id="Graphic_32">
        <circle cx="299" cy="320.51835" r="8.00001278321512" fill="yellow"/>
        <circle cx="299" cy="320.51835" r="8.00001278321512" stroke="black" stroke-linecap="round" stroke-linejoin="round" stroke-width="1"/>
      </g>
      <g id="Graphic_31">
        <path d="M 370.788 331.51835 L 381.788 320.51835 L 370.788 309.51835 L 359.788 320.51835 Z" fill="fuchsia"/>
        <path d="M 370.788 331.51835 L 381.788 320.51835 L 370.788 309.51835 L 359.788 320.51835 Z" stroke="black" stroke-linecap="round" stroke-linejoin="round" stroke-width="1"/>
      </g>
      <g id="Line_30">
        <line x1="307" y1="320.51835" x2="349.888" y2="320.51835" marker-end="url(#FilledArrow_Marker)" stroke="black" stroke-linecap="round" stroke-linejoin="round" stroke-width="1"/>
      </g>
      <g id="Line_29">
        <line x1="335.494" y1="268.52617" x2="360.77984" y2="305.77516" marker-end="url(#FilledArrow_Marker)" stroke="black" stroke-linecap="round" stroke-linejoin="round" stroke-dasharray="4.0,4.0" stroke-width="1"/>
      </g>
      <g id="Line_28">
        <line x1="339.9188" y1="25.047587" x2="357.43395" y2="9.119703" marker-end="url(#FilledArrow_Marker)" stroke="black" stroke-linecap="round" stroke-linejoin="round" stroke-dasharray="4.0,4.0" stroke-width="1"/>
      </g>
      <g id="Line_27">
        <line x1="339.67472" y1="178.94307" x2="355.12604" y2="163.58925" marker-end="url(#FilledArrow_Marker)" stroke="black" stroke-linecap="round" stroke-linejoin="round" stroke-dasharray="4.0,4.0" stroke-width="1"/>
      </g>
      <g id="Line_26">
        <line x1="46.781656" y1="259.79974" x2="47.318633" y2="311.1477" stroke="black" stroke-linecap="round" stroke-linejoin="round" stroke-dasharray="4.0,4.0" stroke-width="1"/>
      </g>
      <g id="Line_25">
        <line x1="-41.227324" y1="-7.439372" x2="95.23497" y2="-40.77011" stroke="black" stroke-linecap="round" stroke-linejoin="round" stroke-dasharray="4.0,4.0" stroke-width="1"/>
      </g>
      <g id="Line_24">
        <line x1="-41.401345" y1="-3.0332867" x2="54.991674" y2="28.777212" stroke="black" stroke-linecap="round" stroke-linejoin="round" stroke-dasharray="4.0,4.0" stroke-width="1"/>
      </g>
      <g id="Line_23">
        <line x1="-42.563776" y1="-.787768" x2="-9.436224" y2="23.676864" stroke="black" stroke-linecap="round" stroke-linejoin="round" stroke-dasharray="4.0,4.0" stroke-width="1"/>
      </g>
      <g id="Line_22">
        <line x1="-9.239652" y1="-37.45134" x2="-42.76035" y2="-10.548659" stroke="black" stroke-linecap="round" stroke-linejoin="round" stroke-dasharray="4.0,4.0" stroke-width="1"/>
      </g>
      <g id="Line_21">
        <line x1="4.996001" y1="28.683843" x2="54.11215" y2="30.243086" stroke="black" stroke-linecap="round" stroke-linejoin="round" stroke-dasharray="4.0,4.0" stroke-width="1"/>
      </g>
      <g id="Line_20">
        <line x1="-3" y1="-34.45909" x2="-3" y2="20.429998" stroke="black" stroke-linecap="round" stroke-linejoin="round" stroke-dasharray="4.0,4.0" stroke-width="1"/>
      </g>
      <g id="Line_19">
        <line x1="-40.86885" y1="-2.8575583" x2="139.73276" y2="30.98392" stroke="black" stroke-linecap="round" stroke-linejoin="round" stroke-dasharray="4.0,4.0" stroke-width="1"/>
      </g>
      <g id="Graphic_18">
        <circle cx="46.448" cy="389.38022" r="8.00001278321514" stroke="black" stroke-linecap="round" stroke-linejoin="round" stroke-width="1"/>
      </g>
      <g id="Graphic_17">
        <path d="M 47.448 448.5984 L 34.948 461.0984 L 47.448 473.5984 L 59.948 461.0984 Z" stroke="black" stroke-linecap="round" stroke-linejoin="round" stroke-width="1"/>
      </g>
      <g id="Graphic_16">
        <circle cx="47.448" cy="461.0984" r="8.00001278321516" stroke="black" stroke-linecap="round" stroke-linejoin="round" stroke-width="1"/>
      </g>
      <g id="Graphic_15">
        <circle cx="299" cy="393.6666" r="8.00001278321513" fill="red"/>
        <circle cx="299" cy="393.6666" r="8.00001278321513" stroke="black" stroke-linecap="round" stroke-linejoin="round" stroke-width="1"/>
      </g>
      <g id="Graphic_14">
        <circle cx="299" cy="462.5984" r="8.00001278321513" fill="yellow"/>
        <circle cx="299" cy="462.5984" r="8.00001278321513" stroke="black" stroke-linecap="round" stroke-linejoin="round" stroke-width="1"/>
      </g>
      <g id="Line_13">
        <line x1="46.559537" y1="397.37945" x2="47.276104" y2="448.7703" stroke="black" stroke-linecap="round" stroke-linejoin="round" stroke-dasharray="4.0,4.0" stroke-width="1"/>
      </g>
      <g id="Graphic_12">
        <path d="M 374.5 405.30977 L 387 393.6666 L 374.5 382.0234 L 362 393.6666 Z" fill="#40ff40"/>
        <path d="M 374.5 405.30977 L 387 393.6666 L 374.5 382.0234 L 362 393.6666 Z" stroke="black" stroke-linecap="round" stroke-linejoin="round" stroke-width="1"/>
      </g>
      <g id="Line_11">
        <line x1="307" y1="393.6666" x2="352.1" y2="393.6666" marker-end="url(#FilledArrow_Marker)" stroke="black" stroke-linecap="round" stroke-linejoin="round" stroke-width="1"/>
      </g>
      <g id="Line_10">
        <line x1="304.9081" y1="457.2043" x2="360.87633" y2="406.10505" marker-end="url(#FilledArrow_Marker)" stroke="black" stroke-linecap="round" stroke-linejoin="round" stroke-dasharray="4.0,4.0" stroke-width="1"/>
      </g>
      <g id="Graphic_9">
        <path d="M 376 473.5984 L 387 462.5984 L 376 451.5984 L 365 462.5984 Z" fill="fuchsia"/>
        <path d="M 376 473.5984 L 387 462.5984 L 376 451.5984 L 365 462.5984 Z" stroke="black" stroke-linecap="round" stroke-linejoin="round" stroke-width="1"/>
      </g>
      <g id="Line_8">
        <line x1="307" y1="462.5984" x2="355.1" y2="462.5984" marker-end="url(#FilledArrow_Marker)" stroke="black" stroke-linecap="round" stroke-linejoin="round" stroke-width="1"/>
      </g>
      <g id="Line_7">
        <line x1="304.96066" y1="399.0027" x2="362.8198" y2="450.79924" marker-end="url(#FilledArrow_Marker)" stroke="black" stroke-linecap="round" stroke-linejoin="round" stroke-dasharray="4.0,4.0" stroke-width="1"/>
      </g>
      <g id="Graphic_6">
        <text transform="translate(-36.288 529.8166)" fill="black">
          <tspan font-family="PingFang SC" font-size="16" fill="black" x="781597e-18" y="17">Physical Device(Node)</tspan>
        </text>
      </g>
      <g id="Graphic_5">
        <text transform="translate(249.496 528.5302)" fill="black">
          <tspan font-family="PingFang SC" font-size="16" fill="black" x="8242296e-19" y="17">Logical Device(Device)</tspan>
        </text>
      </g>
      <g id="Graphic_4">
        <text transform="translate(556.6999 528.781)" fill="black">
          <tspan font-family="PingFang SC" font-size="16" fill="black" x="0" y="17">Logical Computation Graph(Device Flow)</tspan>
        </text>
      </g>
      <g id="Graphic_3">
        <path d="M 182.4889 212.4314 L 182.4889 199.9314 L 222.9889 199.9314 L 222.9889 193.6814 L 233.9889 206.1814 L 222.9889 218.6814 L 222.9889 212.4314 Z" fill="#ccc"/>
        <path d="M 182.4889 212.4314 L 182.4889 199.9314 L 222.9889 199.9314 L 222.9889 193.6814 L 233.9889 206.1814 L 222.9889 218.6814 L 222.9889 212.4314 Z" stroke="black" stroke-linecap="round" stroke-linejoin="round" stroke-width="1"/>
      </g>
      <g id="Graphic_2">
        <path d="M 460.9889 212.4314 L 460.9889 199.9314 L 501.4889 199.9314 L 501.4889 193.6814 L 512.4889 206.1814 L 501.4889 218.6814 L 501.4889 212.4314 Z" fill="#ccc"/>
        <path d="M 460.9889 212.4314 L 460.9889 199.9314 L 501.4889 199.9314 L 501.4889 193.6814 L 512.4889 206.1814 L 501.4889 218.6814 L 501.4889 212.4314 Z" stroke="black" stroke-linecap="round" stroke-linejoin="round" stroke-width="1"/>
      </g>
    </g>
  </g>
</svg>
